<svg xmlns="http://www.w3.org/2000/svg" width="42" height="29" viewBox="0 0 42 29" fill="none">
  <path fill-rule="evenodd" clip-rule="evenodd" d="M5 0C2.23858 0 0 2.23858 0 5V8.4586C3.33666 8.45866 6.04154 11.1636 6.04154 14.5003C6.04154 17.8369 3.33666 20.5419 0 20.5419V24C0 26.7614 2.23857 29 5 29H36.0833C38.8448 29 41.0833 26.7614 41.0833 24V20.5419C41.0833 20.5419 41.0833 20.5419 41.0832 20.5419C37.7465 20.5419 35.0415 17.837 35.0415 14.5003C35.0415 11.1635 37.7465 8.4586 41.0832 8.4586C41.0833 8.4586 41.0833 8.4586 41.0833 8.4586V5C41.0833 2.23858 38.8448 0 36.0833 0H5Z" fill="#00DF82"/>
  <path d="M20.1194 9.2692C20.3989 8.40896 21.6159 8.40896 21.8954 9.2692L22.7893 12.0202C22.9143 12.4049 23.2728 12.6654 23.6773 12.6654H26.5699C27.4744 12.6654 27.8505 13.8228 27.1187 14.3545L24.7786 16.0547C24.4513 16.2925 24.3144 16.7139 24.4394 17.0986L25.3332 19.8496C25.6127 20.7099 24.6281 21.4252 23.8964 20.8935L21.5562 19.1933C21.229 18.9556 20.7858 18.9556 20.4586 19.1933L18.1185 20.8935C17.3867 21.4252 16.4021 20.7099 16.6816 19.8496L17.5755 17.0986C17.7005 16.7139 17.5635 16.2925 17.2363 16.0547L14.8961 14.3545C14.1644 13.8228 14.5405 12.6654 15.445 12.6654H18.3375C18.742 12.6654 19.1005 12.4049 19.2255 12.0202L20.1194 9.2692Z" fill="#03624C"/>
</svg>