<svg xmlns="http://www.w3.org/2000/svg" width="22" height="25" viewBox="0 0 22 25" fill="none">
  <path d="M12.2077 0.405815C11.4935 -0.135272 10.5065 -0.135271 9.79228 0.405816L0.792284 7.224C0.293212 7.60208 0 8.19207 0 8.81818V22.4909C0 23.5955 0.89543 24.4909 2 24.4909H4.875C5.97957 24.4909 6.875 23.5954 6.875 22.4909V16.7687C6.875 15.6641 7.77043 14.7687 8.875 14.7687H13.125C14.2296 14.7687 15.125 15.6641 15.125 16.7687V22.4909C15.125 23.5955 16.0204 24.4909 17.125 24.4909H20C21.1046 24.4909 22 23.5954 22 22.4909V8.81818C22 8.19207 21.7068 7.60208 21.2077 7.224L12.2077 0.405815Z" fill="#00DF82"/>
</svg>