<svg xmlns="http://www.w3.org/2000/svg" width="76" height="26" viewBox="0 0 76 26" fill="none">
  <path d="M51.2327 13C51.2327 20.1797 45.6065 26 38.6662 26C31.7259 26 26.0997 20.1797 26.0997 13C26.0997 5.8203 31.7259 0 38.6662 0C45.6065 0 51.2327 5.8203 51.2327 13Z" fill="url(#paint0_linear_270_259)"/>
  <path d="M10.6406 5.9503C11.5091 6.59961 12.6573 6.59961 13.5258 5.9503L20.1829 0.973205C21.8685 -0.287035 24.1664 1.02105 24.1664 3.24082V23.2454C24.1664 24.7667 23.0288 26 21.6254 26H19.2074C17.8041 26 16.6665 24.7667 16.6665 23.2454V18.8173C16.6665 17.296 15.5289 16.0627 14.1255 16.0627H10.0409C8.63754 16.0627 7.49991 17.296 7.49991 18.8173V23.2454C7.49991 24.7667 6.36229 26 4.95896 26H2.54095C1.13762 26 0 24.7667 0 23.2454V3.24082C0 1.02105 2.29791 -0.287037 3.98354 0.973203L10.6406 5.9503Z" fill="url(#paint1_linear_270_259)"/>
  <path d="M51.9321 25.2714C50.4733 25.2714 49.5401 23.7234 50.2255 22.4406L61.2914 1.72938C62.0188 0.368006 63.9773 0.368009 64.7047 1.72938L75.7706 22.4406C76.4561 23.7234 75.5228 25.2714 74.064 25.2714H70.1059C69.3822 25.2714 68.7192 24.8688 68.3875 24.2281L64.7926 17.2828C64.0726 15.8917 62.076 15.8917 61.3559 17.2828L57.761 24.2281C57.4294 24.8688 56.7663 25.2714 56.0427 25.2714H51.9321Z" fill="url(#paint2_linear_270_259)"/>
  <defs>
    <linearGradient id="paint0_linear_270_259" x1="11.5999" y1="-2.88889" x2="43.341" y2="43.4452" gradientUnits="userSpaceOnUse">
      <stop stop-color="#00DF82"/>
      <stop offset="1" stop-color="#2CC295"/>
    </linearGradient>
    <linearGradient id="paint1_linear_270_259" x1="11.5999" y1="-2.88889" x2="43.341" y2="43.4452" gradientUnits="userSpaceOnUse">
      <stop stop-color="#00DF82"/>
      <stop offset="1" stop-color="#2CC295"/>
    </linearGradient>
    <linearGradient id="paint2_linear_270_259" x1="11.5999" y1="-2.88889" x2="43.341" y2="43.4452" gradientUnits="userSpaceOnUse">
      <stop stop-color="#00DF82"/>
      <stop offset="1" stop-color="#2CC295"/>
    </linearGradient>
  </defs>
</svg>