<svg xmlns="http://www.w3.org/2000/svg" width="25" height="25" viewBox="0 0 25 25" fill="none">
  <path d="M12.5 7.95455C9.98864 7.95455 7.95455 9.98864 7.95455 12.5C7.95455 15.0114 9.98864 17.0455 12.5 17.0455C15.0114 17.0455 17.0455 15.0114 17.0455 12.5C17.0455 9.98864 15.0114 7.95455 12.5 7.95455ZM23.7652 11.3636C23.1356 11.3636 22.6149 10.8871 22.4785 10.2725C21.6222 6.41435 18.5856 3.37779 14.7275 2.52153C14.1129 2.38513 13.6364 1.86439 13.6364 1.23482V1.13636C13.6364 0.508767 13.1276 0 12.5 0C11.8724 0 11.3636 0.508768 11.3636 1.13636V1.23482C11.3636 1.86439 10.8871 2.38513 10.2725 2.52153C6.41435 3.37779 3.37779 6.41435 2.52153 10.2725C2.38513 10.8871 1.86439 11.3636 1.23482 11.3636H1.13636C0.508767 11.3636 0 11.8724 0 12.5C0 13.1276 0.508768 13.6364 1.13636 13.6364H1.23482C1.86439 13.6364 2.38513 14.1129 2.52153 14.7275C3.37779 18.5856 6.41435 21.6222 10.2725 22.4785C10.8871 22.6149 11.3636 23.1356 11.3636 23.7652V23.8636C11.3636 24.4912 11.8724 25 12.5 25C13.1276 25 13.6364 24.4912 13.6364 23.8636V23.7652C13.6364 23.1356 14.1129 22.6149 14.7275 22.4785C18.5856 21.6222 21.6222 18.5856 22.4785 14.7275C22.6149 14.1129 23.1356 13.6364 23.7652 13.6364H23.8636C24.4912 13.6364 25 13.1276 25 12.5C25 11.8724 24.4912 11.3636 23.8636 11.3636H23.7652ZM12.5 20.4545C8.10227 20.4545 4.54545 16.8977 4.54545 12.5C4.54545 8.10227 8.10227 4.54545 12.5 4.54545C16.8977 4.54545 20.4545 8.10227 20.4545 12.5C20.4545 16.8977 16.8977 20.4545 12.5 20.4545Z" fill="#CDCFCF"/>
</svg>