<svg xmlns="http://www.w3.org/2000/svg" width="25" height="25" viewBox="0 0 25 25" fill="none">
  <path d="M6.94444 19.4444C7.33796 19.4444 7.66806 19.3111 7.93472 19.0444C8.20046 18.7787 8.33333 18.4491 8.33333 18.0556V11.1111C8.33333 10.7176 8.20046 10.3875 7.93472 10.1208C7.66806 9.85509 7.33796 9.72222 6.94444 9.72222C6.55093 9.72222 6.22083 9.85509 5.95417 10.1208C5.68843 10.3875 5.55556 10.7176 5.55556 11.1111V18.0556C5.55556 18.4491 5.68843 18.7787 5.95417 19.0444C6.22083 19.3111 6.55093 19.4444 6.94444 19.4444ZM12.5 19.4444C12.8935 19.4444 13.2236 19.3111 13.4903 19.0444C13.756 18.7787 13.8889 18.4491 13.8889 18.0556V6.94444C13.8889 6.55093 13.756 6.22083 13.4903 5.95417C13.2236 5.68843 12.8935 5.55556 12.5 5.55556C12.1065 5.55556 11.7769 5.68843 11.5111 5.95417C11.2444 6.22083 11.1111 6.55093 11.1111 6.94444V18.0556C11.1111 18.4491 11.2444 18.7787 11.5111 19.0444C11.7769 19.3111 12.1065 19.4444 12.5 19.4444ZM18.0556 19.4444C18.4491 19.4444 18.7787 19.3111 19.0444 19.0444C19.3111 18.7787 19.4444 18.4491 19.4444 18.0556V15.2778C19.4444 14.8843 19.3111 14.5542 19.0444 14.2875C18.7787 14.0218 18.4491 13.8889 18.0556 13.8889C17.662 13.8889 17.3324 14.0218 17.0667 14.2875C16.8 14.5542 16.6667 14.8843 16.6667 15.2778V18.0556C16.6667 18.4491 16.8 18.7787 17.0667 19.0444C17.3324 19.3111 17.662 19.4444 18.0556 19.4444ZM2.77778 25C2.01389 25 1.35972 24.7282 0.815278 24.1847C0.271759 23.6403 0 22.9861 0 22.2222V2.77778C0 2.01389 0.271759 1.35972 0.815278 0.815278C1.35972 0.271759 2.01389 0 2.77778 0H13.8889C14.2824 0 14.6125 0.13287 14.8792 0.398611C15.1449 0.665278 15.2778 0.99537 15.2778 1.38889C15.2778 1.78241 15.1449 2.11204 14.8792 2.37778C14.6125 2.64444 14.2824 2.77778 13.8889 2.77778H2.77778V22.2222H22.2222V11.1111C22.2222 10.7176 22.3556 10.3875 22.6222 10.1208C22.888 9.85509 23.2176 9.72222 23.6111 9.72222C24.0046 9.72222 24.3343 9.85509 24.6 10.1208C24.8667 10.3875 25 10.7176 25 11.1111V22.2222C25 22.9861 24.7282 23.6403 24.1847 24.1847C23.6403 24.7282 22.9861 25 22.2222 25H2.77778ZM20.8333 8.33333C20.4398 8.33333 20.1102 8.2 19.8444 7.93333C19.5778 7.66759 19.4444 7.33796 19.4444 6.94444V5.55556H18.0556C17.662 5.55556 17.3324 5.42268 17.0667 5.15694C16.8 4.89028 16.6667 4.56018 16.6667 4.16667C16.6667 3.77315 16.8 3.44306 17.0667 3.17639C17.3324 2.91065 17.662 2.77778 18.0556 2.77778H19.4444V1.38889C19.4444 0.99537 19.5778 0.665278 19.8444 0.398611C20.1102 0.13287 20.4398 0 20.8333 0C21.2269 0 21.5565 0.13287 21.8222 0.398611C22.0889 0.665278 22.2222 0.99537 22.2222 1.38889V2.77778H23.6111C24.0046 2.77778 24.3343 2.91065 24.6 3.17639C24.8667 3.44306 25 3.77315 25 4.16667C25 4.56018 24.8667 4.89028 24.6 5.15694C24.3343 5.42268 24.0046 5.55556 23.6111 5.55556H22.2222V6.94444C22.2222 7.33796 22.0889 7.66759 21.8222 7.93333C21.5565 8.2 21.2269 8.33333 20.8333 8.33333Z" fill="#CDCFCF"/>
</svg>