<svg xmlns="http://www.w3.org/2000/svg" width="11" height="11" viewBox="0 0 11 11" fill="none">
  <path d="M4.96375 9.78859C5.29102 9.58067 5.70898 9.58067 6.03625 9.78859L7.48304 10.7078C8.23448 11.1852 9.18823 10.5165 8.9956 9.64734L8.57626 7.7552C8.49878 7.40558 8.61416 7.04122 8.87877 6.79992L10.3193 5.4863C10.9624 4.89988 10.6013 3.82877 9.73445 3.75136L7.93645 3.59079C7.56213 3.55736 7.23814 3.31687 7.09778 2.96825L6.42763 1.30387C6.09129 0.468539 4.90871 0.468539 4.57237 1.30387L3.90222 2.96825C3.76186 3.31687 3.43788 3.55736 3.06355 3.59079L1.26555 3.75136C0.398691 3.82877 0.0376164 4.89988 0.680695 5.4863L2.12123 6.79992C2.38584 7.04122 2.50122 7.40558 2.42374 7.7552L2.0044 9.64734C1.81177 10.5165 2.76552 11.1852 3.51696 10.7078L4.96375 9.78859Z" fill="#B2B9C2"/>
</svg>