<svg xmlns="http://www.w3.org/2000/svg" width="12" height="12" viewBox="0 0 12 12" fill="none">
  <path d="M8.8 2.76923C8.8 4.29863 7.5464 5.53846 6 5.53846C4.4536 5.53846 3.2 4.29863 3.2 2.76923C3.2 1.23983 4.4536 0 6 0C7.5464 0 8.8 1.23983 8.8 2.76923Z" fill="#B2B9C2"/>
  <path d="M12 12C12 11.2207 11.8448 10.4491 11.5433 9.72913C11.2417 9.00918 10.7998 8.35501 10.2426 7.80398C9.68549 7.25295 9.02405 6.81585 8.2961 6.51764C7.56815 6.21942 6.78793 6.06593 6 6.06593C5.21207 6.06593 4.43185 6.21942 3.7039 6.51764C2.97595 6.81585 2.31451 7.25295 1.75736 7.80398C1.20021 8.35501 0.758251 9.00918 0.456723 9.72913C0.155194 10.4491 -6.88831e-08 11.2207 0 12L12 12Z" fill="#B2B9C2"/>
</svg>