<svg width="23" height="23" viewBox="0 0 23 23" fill="none" xmlns="http://www.w3.org/2000/svg">
<path d="M10.7392 2.34164C10.9786 1.60459 12.0214 1.60459 12.2608 2.34164L13.9023 7.39352C14.0094 7.72314 14.3166 7.9463 14.6631 7.9463H19.975C20.75 7.9463 21.0722 8.938 20.4452 9.39352L16.1478 12.5158C15.8675 12.7195 15.7501 13.0806 15.8572 13.4102L17.4987 18.4621C17.7382 19.1991 16.8946 19.812 16.2676 19.3565L11.9702 16.2342C11.6898 16.0305 11.3102 16.0305 11.0298 16.2342L6.73239 19.3565C6.10542 19.812 5.26183 19.1991 5.50131 18.4621L7.14277 13.4102C7.24987 13.0806 7.13254 12.7195 6.85215 12.5158L2.55477 9.39352C1.9278 8.938 2.25002 7.9463 3.025 7.9463H8.33685C8.68344 7.9463 8.9906 7.72314 9.0977 7.39352L10.7392 2.34164Z" fill="#00DF82"/>
</svg>
