<svg width="21" height="20" viewBox="0 0 21 20" fill="none" xmlns="http://www.w3.org/2000/svg">
<path id="Vector" d="M20.2308 8.92919C20.8946 8.34909 20.5375 7.25618 19.6593 7.17993L14.3322 6.71742C13.9627 6.68534 13.6413 6.45139 13.4973 6.10964L11.4222 1.1874C11.0783 0.371784 9.92243 0.372096 9.57902 1.1879L7.50295 6.11987C7.35879 6.46235 7.03662 6.69665 6.66639 6.72828L1.3485 7.18254C0.469014 7.25767 0.111086 8.3523 0.776285 8.93252L4.82665 12.4654C5.10506 12.7083 5.2269 13.0849 5.14351 13.4448L3.92907 18.6863C3.72924 19.5488 4.66604 20.2264 5.42259 19.7666L9.98067 16.9967C10.2997 16.8027 10.7003 16.8027 11.0193 16.9967L15.5812 19.7689C16.3372 20.2283 17.2736 19.552 17.075 18.6899L15.8669 13.4435C15.7841 13.0842 15.9058 12.7086 16.1833 12.466L20.2308 8.92919ZM11.0196 14.8322C10.7004 14.6378 10.2995 14.6377 9.98012 14.8318L8.20674 15.9098C7.45006 16.3698 6.51303 15.6918 6.7132 14.8292L7.19037 12.7729C7.27385 12.4132 7.15224 12.0367 6.87408 11.7937L5.27689 10.3987C4.61301 9.81883 4.96959 8.72601 5.8477 8.6493L7.94315 8.46626C8.31324 8.43393 8.6349 8.19911 8.77845 7.85647L9.57924 5.9451C9.92177 5.12753 11.0799 5.12683 11.4234 5.94399L12.2327 7.86909C12.3765 8.21116 12.6979 8.44547 13.0675 8.47777L15.1638 8.66088C16.0419 8.73759 16.3985 9.83041 15.7346 10.4103L14.1374 11.8053C13.8593 12.0482 13.7376 12.4247 13.8211 12.7845L14.2977 14.8383C14.498 15.7013 13.5602 16.3792 12.8035 15.9185L11.0196 14.8322Z" fill="black"/>
</svg>
