<svg width="55" height="74" viewBox="0 0 55 74" fill="none" xmlns="http://www.w3.org/2000/svg">
<path fill-rule="evenodd" clip-rule="evenodd" d="M27.5 0C23.8887 0 20.3127 0.711308 16.9762 2.09331C13.6398 3.47532 10.6082 5.50095 8.05457 8.05456C5.50095 10.6082 3.47532 13.6398 2.09331 16.9762C0.711309 20.3127 0 23.8886 0 27.5C0 27.8399 0.00630054 28.1795 0.0188677 28.5185H0C0 42.2685 13.75 59.0741 27.5 73.3334C41.25 59.0741 55 42.2685 55 28.5185H54.9811C54.9937 28.1795 55 27.8399 55 27.5C55 23.8886 54.2887 20.3127 52.9067 16.9762C51.5247 13.6398 49.499 10.6082 46.9454 8.05456C44.3918 5.50095 41.3602 3.47532 38.0238 2.09331C34.6873 0.711308 31.1113 0 27.5 0Z" fill="#FFC300"/>
<circle cx="27.5" cy="28.1665" r="21.5" fill="#D9D9D9"/>
</svg>
