<svg width="92" height="92" viewBox="0 0 92 92" fill="none" xmlns="http://www.w3.org/2000/svg">
<g id="Group 45">
<circle id="Ellipse 57" cx="46" cy="46" r="46" fill="#00DF82"/>
<path id="Vector" d="M39.6145 60C39.295 60 38.9954 59.9474 38.7158 59.8421C38.4362 59.7386 38.1766 59.5615 37.9369 59.311L27.6315 48.5369C27.1921 48.0776 26.982 47.4821 27.0012 46.7504C27.022 46.0205 27.252 45.4258 27.6914 44.9664C28.1308 44.5071 28.69 44.2774 29.369 44.2774C30.0481 44.2774 30.6073 44.5071 31.0467 44.9664L39.6145 53.9239L59.9258 32.689C60.3651 32.2297 60.9347 32 61.6346 32C62.3328 32 62.9016 32.2297 63.3409 32.689C63.7803 33.1484 64 33.7431 64 34.473C64 35.2047 63.7803 35.8001 63.3409 36.2595L41.2922 59.311C41.0525 59.5615 40.7929 59.7386 40.5133 59.8421C40.2337 59.9474 39.9341 60 39.6145 60Z" fill="#FAFAFA"/>
</g>
</svg>
